<svg width="47" height="47" viewBox="0 0 47 47" fill="none" xmlns="http://www.w3.org/2000/svg">
<path fill-rule="evenodd" clip-rule="evenodd" d="M41.2577 0C44.427 0 47 2.57307 47 5.74226V41.2577C47 44.4269 44.4269 47 41.2577 47H31.4843V29.291H37.598L38.7612 21.7067H31.4843V16.7848C31.4843 14.7099 32.5008 12.6873 35.7602 12.6873H39.0688V6.23035C39.0688 6.23035 36.0661 5.71794 33.1954 5.71794C27.2022 5.71794 23.285 9.35025 23.285 15.9261V21.7067H16.623V29.291H23.285V47H5.74226C2.57307 47 0 44.4269 0 41.2577V5.74226C0 2.57307 2.57297 0 5.74226 0H41.2577V0Z" fill="#1877F2"/>
</svg>
