<svg width="50" height="50" viewBox="0 0 50 50" fill="none" xmlns="http://www.w3.org/2000/svg">
<path d="M10 0C4.45999 0 0 4.45999 0 10V40C0 45.54 4.45999 50 10 50H40C45.54 50 50 45.54 50 40V10C50 4.45999 45.54 0 40 0H10ZM22.1768 6.27148C26.2764 6.23767 30.3999 7.66556 33.6865 10.6045C40.0929 16.3331 41.1476 25.8603 36.5 32.8105C36.5351 32.8398 36.5693 32.8701 36.6025 32.9014L43.9863 39.6777C44.2141 39.8838 44.3989 40.1328 44.53 40.4106C44.6612 40.6884 44.736 40.9894 44.7503 41.2962C44.7645 41.603 44.7179 41.9097 44.6131 42.1984C44.5084 42.4871 44.3475 42.7523 44.1398 42.9786C43.932 43.2048 43.6816 43.3878 43.4029 43.5168C43.1241 43.6458 42.8226 43.7184 42.5157 43.7304C42.2087 43.7424 41.9025 43.6935 41.6145 43.5866C41.3266 43.4797 41.0626 43.3168 40.8379 43.1074L33.4541 36.3311C33.4396 36.3172 33.4253 36.3032 33.4111 36.2891C27.0219 41.7671 17.3707 41.8125 10.9307 36.0537C3.9192 29.784 3.31427 18.9626 9.58398 11.9512C12.9148 8.22633 17.5305 6.3098 22.1768 6.27148ZM22.2021 9.86914C18.5485 9.89804 14.921 11.4144 12.2832 14.3643C7.31787 19.917 7.79099 28.3892 13.3437 33.3545C18.8965 38.3198 27.3687 37.8467 32.334 32.2939C37.2993 26.7412 36.8262 18.269 31.2734 13.3037C28.6706 10.9762 25.426 9.84365 22.2021 9.86914ZM13.2598 17.1377C13.4843 17.1334 13.7061 17.1876 13.9033 17.295C14.1005 17.4024 14.2664 17.5593 14.3846 17.7503C14.5027 17.9413 14.5691 18.1597 14.5772 18.3842C14.5853 18.6086 14.5348 18.8313 14.4307 19.0303C13.8345 20.2134 13.5093 22.1803 13.6865 24.1084C13.8638 26.0365 14.5319 27.9062 15.5732 29.0518C15.8039 29.3056 15.9244 29.6407 15.9081 29.9833C15.8918 30.3259 15.7401 30.6481 15.4864 30.8789C15.2326 31.1097 14.8976 31.2303 14.555 31.2142C14.2123 31.1981 13.8901 31.0466 13.6592 30.793C12.0819 29.0579 11.3265 26.6853 11.1113 24.3447C10.8961 22.0041 11.2093 19.6755 12.1211 17.8662C12.1777 17.7497 12.2514 17.6424 12.3398 17.5479C12.4579 17.4214 12.6002 17.32 12.7582 17.2495C12.9162 17.1791 13.0868 17.1411 13.2598 17.1377Z" fill="#1877F2"/>
</svg>
