<svg width="46" height="46" viewBox="0 0 46 46" fill="none" xmlns="http://www.w3.org/2000/svg">
<path d="M10.541 7.66699H42.166C44.2831 7.66699 45.9993 9.38323 45.9993 11.5003V42.167C45.9993 44.2841 44.2831 46.0003 42.166 46.0003H24.916L10.541 7.66699Z" fill="#E6E6E6"/>
<path d="M21.0833 0H3.83333C1.71624 0 0 1.71624 0 3.83333V34.5C0 36.6171 1.71624 38.3333 3.83333 38.3333H34.5L21.0833 0Z" fill="#38CA6C"/>
<path opacity="0.1" d="M24.916 46H42.166C44.2831 46 45.9993 44.2837 45.9993 42.1667V41.6875C45.9993 43.8046 44.2831 45.5208 42.166 45.5208H24.916V46Z" fill="black"/>
<path opacity="0.2" d="M21.0833 0H3.83333C1.71627 0 0 1.71616 0 3.83333V34.5C0 34.9174 0.0834097 35.3119 0.206828 35.688C0.163661 35.4577 0.135351 35.2219 0.135351 34.9792V4.3125C0.135351 2.19532 1.85151 0.479167 3.96868 0.479167H21.2513L21.0833 0Z" fill="white"/>
<path opacity="0.1" d="M34.3324 37.8543H3.83354C2.13388 37.8543 0.709361 36.7408 0.207031 35.209C0.540085 36.9867 2.09445 38.3335 3.96889 38.3335H34.5002L34.3324 37.8543Z" fill="black"/>
<path d="M34.4993 38.333L24.916 45.9997L22.041 38.333H34.4993Z" fill="#1B9B48"/>
<path d="M23.7676 7.66699V7.66711L34.5009 38.3337L24.9175 46.0003H42.1675C44.2846 46.0003 46.0009 44.284 46.0009 42.167V29.9003L23.7676 7.66699Z" fill="url(#paint0_linear_1447_343)"/>
<path d="M42.1667 7.66667H23.7667L21.0833 0H3.83333C1.71627 0 0 1.71616 0 3.83333V34.5C0 36.6171 1.71627 38.3333 3.83333 38.3333H22.0417L24.9167 46H42.1667C44.2837 46 46 44.2837 46 42.1667V11.5C46 9.38282 44.2837 7.66667 42.1667 7.66667Z" fill="url(#paint1_linear_1447_343)"/>
<path d="M5.5812 16.2361C5.5812 19.1394 7.44933 21.0613 11.2479 22.0223L15.0464 22.9833C17.475 23.6171 18.3675 24.4349 18.3675 25.948C18.3675 27.8699 16.5617 29.0967 13.6349 29.0967C10.7082 29.0967 9.0061 27.9108 8.61172 25.7026H5C5.37363 29.4647 8.67399 32 13.4066 32C18.4505 32 22 29.3829 22 25.6822C22 22.5539 20.4225 21 16.0635 19.9164L12.7216 19.119C10.2723 18.5056 9.13065 17.5242 9.13065 16.052C9.13065 14.1914 10.8742 12.9033 13.5104 12.9033C16.1673 12.9033 17.8486 14.171 18.0977 16.2156H21.5433C21.3773 12.6171 18.0977 10 13.6349 10C8.88156 10 5.5812 12.5967 5.5812 16.2361Z" fill="white"/>
<defs>
<linearGradient id="paint0_linear_1447_343" x1="14.4717" y1="16.9628" x2="43.6323" y2="46.1234" gradientUnits="userSpaceOnUse">
<stop stop-opacity="0.1"/>
<stop offset="1" stop-opacity="0"/>
</linearGradient>
<linearGradient id="paint1_linear_1447_343" x1="-3.55966" y1="10.615" x2="49.5596" y2="35.385" gradientUnits="userSpaceOnUse">
<stop stop-color="white" stop-opacity="0.2"/>
<stop offset="1" stop-color="white" stop-opacity="0"/>
</linearGradient>
</defs>
</svg>
