<svg width="73" height="76" viewBox="0 0 73 76" fill="none" xmlns="http://www.w3.org/2000/svg">
<path fill-rule="evenodd" clip-rule="evenodd" d="M72.2287 13.9118C72.2287 6.59258 66.5498 0.659182 59.5446 0.659182L13.4341 0.65918C6.42887 0.659179 0.750003 6.59258 0.750002 13.9118L0.75 62.0889C0.75 69.4081 6.42887 75.3415 13.4341 75.3415H59.5446C66.5498 75.3415 72.2287 69.4081 72.2287 62.0889V13.9118ZM36.8494 50.2844C36.8494 56.6787 41.828 61.8805 47.948 61.8805C50.2458 61.8805 52.3825 61.1472 54.1553 59.893L59.6661 65.6508C60.0784 66.0816 60.6194 66.298 61.1607 66.298C61.7019 66.298 62.243 66.0816 62.6553 65.6508C63.4819 64.7872 63.4819 63.3913 62.6553 62.5277L57.1446 56.77C58.345 54.9175 59.0466 52.685 59.0466 50.2844C59.0466 43.8901 54.0682 38.6884 47.948 38.6884C41.828 38.6884 36.8494 43.8901 36.8494 50.2844ZM52.7954 55.3491C52.8428 55.2997 52.8917 55.2532 52.9421 55.2094C54.1049 53.923 54.8186 52.1892 54.8186 50.2844C54.8186 46.3263 51.7364 43.1059 47.948 43.1059C44.1598 43.1059 41.0776 46.3263 41.0776 50.2844C41.0776 54.2426 44.1598 57.463 47.948 57.463C49.7711 57.463 51.4306 56.7173 52.6617 55.5024C52.7037 55.4497 52.7483 55.3985 52.7954 55.3491ZM18.3518 13.2877H42.6631C45.8763 13.2877 48.4766 16.0044 48.4766 19.3617V34.2931C48.3075 34.2709 48.1172 34.2709 47.948 34.2709C39.4921 34.2709 32.6214 41.4495 32.6214 50.2844C32.6214 53.7964 33.6996 57.0211 35.56 59.6716H18.3518C15.1386 59.6716 12.5383 56.9549 12.5383 53.5976V19.3617C12.5383 16.0044 15.1386 13.2877 18.3518 13.2877ZM42.6996 27.6141C42.6996 29.4909 41.2919 30.6757 38.9984 30.6757C37.1001 30.6757 35.8833 29.8837 35.5139 28.832C35.4501 28.659 35.4119 28.4727 35.4119 28.2929C35.4119 27.7605 35.7623 27.4076 36.2592 27.4076C36.6542 27.4076 36.9154 27.5674 37.1447 27.9934C37.4441 28.7256 38.164 29.0583 39.043 29.0583C40.0751 29.0583 40.7758 28.5392 40.7758 27.8337C40.7758 27.2014 40.3426 26.842 39.1896 26.5956L38.2148 26.3961C36.3803 26.0166 35.4821 25.0981 35.4821 23.6671C35.4821 21.91 36.9472 20.7451 38.9921 20.7451C40.6739 20.7451 41.9416 21.484 42.3493 22.7352C42.3939 22.8684 42.4194 23.0082 42.4194 23.1811C42.4194 23.6604 42.0881 23.9866 41.5976 23.9866C41.1644 23.9866 40.8969 23.8068 40.6802 23.3943C40.3744 22.6686 39.782 22.3691 38.9921 22.3691C38.0429 22.3691 37.4123 22.8352 37.4123 23.5407C37.4123 24.133 37.8518 24.4991 38.9411 24.7253L39.9094 24.9317C41.8588 25.3377 42.6996 26.1564 42.6996 27.6141ZM18.6255 30.6425C19.1352 30.6425 19.4219 30.3762 19.6002 29.7373L20.0843 28.2397H23.4034L23.8875 29.7572C24.0595 30.3829 24.3462 30.6425 24.8876 30.6425C25.4482 30.6425 25.8495 30.2498 25.8495 29.6974C25.8495 29.4976 25.8177 29.3179 25.7284 29.0583L23.2058 21.91C22.932 21.1245 22.4859 20.7785 21.7343 20.7785C21.008 20.7785 20.5557 21.1379 20.2882 21.9165L17.7783 29.0583C17.6955 29.3046 17.6509 29.5308 17.6509 29.6974C17.6509 30.2764 18.0268 30.6425 18.6255 30.6425ZM20.5048 26.6822L21.6961 22.7486H21.7407L22.9573 26.6822H20.5048ZM27.7227 30.5159H30.2708C33.0291 30.5159 34.6536 28.7256 34.6536 25.6771C34.6536 22.6287 33.0291 20.9115 30.2708 20.9115H27.7227C27.1174 20.9115 26.7608 21.2975 26.7608 21.9566V29.4643C26.7608 30.1299 27.1174 30.5159 27.7227 30.5159ZM28.6846 28.852V22.5689H30.0415C31.7359 22.5689 32.6916 23.6737 32.6916 25.6838C32.6916 27.7605 31.7615 28.852 30.0415 28.852H28.6846ZM17.7931 36.1957C17.7931 35.6729 18.1989 35.2491 18.6992 35.2491H31.7456C32.246 35.2491 32.6517 35.6729 32.6517 36.1957C32.6517 36.7184 32.246 37.1422 31.7456 37.1422H18.6992C18.1989 37.1422 17.7931 36.7184 17.7931 36.1957ZM18.6992 40.9287C18.1989 40.9287 17.7931 41.3525 17.7931 41.8753C17.7931 42.3982 18.1989 42.822 18.6992 42.822H27.9404C28.4408 42.822 28.8465 42.3982 28.8465 41.8753C28.8465 41.3525 28.4408 40.9287 27.9404 40.9287H18.6992ZM17.7931 47.555C17.7931 47.0322 18.1989 46.6085 18.6992 46.6085H27.9404C28.4408 46.6085 28.8465 47.0322 28.8465 47.555C28.8465 48.0778 28.4408 48.5016 27.9404 48.5016H18.6992C18.1989 48.5016 17.7931 48.0778 17.7931 47.555Z" fill="white"/>
</svg>
