<?xml version="1.0" encoding="utf-8"?>
<svg version="1.1" id="Layer_1" xmlns="http://www.w3.org/2000/svg" xmlns:xlink="http://www.w3.org/1999/xlink" x="0px" y="0px"
	 viewBox="0 0 170 74" style="enable-background:new 0 0 170 74;" xml:space="preserve">
<style type="text/css">
	.st0{fill:none;}
	.st1{fill:#EE2527;}
	.st2{fill:#5379BC;}
	.st3{fill:#13B14C;}
	.st4{fill:#FEBD16;}
	.st5{fill:#FDFEFC;}
</style>
<path class="st0" d="M101.3,44.6H136v15.1h-34.7V44.6z"/>
<g>
	<path class="st1" d="M96,35.2c-0.3,1.4-0.7,2.8-1,4.2c-1.4,5.9-2.7,11.7-4.1,17.6c-0.1,0.6-0.4,0.8-1,0.8c-1.3,0-2.7,0-4,0.1
		c-0.6,0-0.9-0.2-1-0.8c-1.5-6.8-3.1-13.5-4.7-20.3c-0.2-0.7-0.4-1.5-0.6-2.2c0,7.5,0,14.9,0,22.3c0,0.9-0.2,1.1-1.1,1
		c-2-0.1-4,0-6,0c-0.5,0-0.7-0.1-0.7-0.7c0-8.8,0-17.7,0-26.5c0-3,2.4-5.3,5.4-5.3c2.1,0,4.3,0,6.4,0c0.9,0,1.2,0.2,1.4,1.1
		c0.8,4.2,1.8,8.4,2.6,12.6c0,0.1,0.1,0.2,0.1,0.4c0.4-0.2,0.4-0.5,0.4-0.8c0.9-4.1,1.8-8.3,2.6-12.4c0.1-0.6,0.4-0.8,1-0.8
		c2.1,0,4.2,0,6.3,0c3.5,0,5.8,2.3,5.8,5.7c0,6.9,0,13.8,0,20.7c0,1.7,0,3.5,0,5.2c0,0.7-0.1,0.9-0.9,0.9c-2-0.1-4.1,0-6.1,0
		c-0.7,0-0.8-0.2-0.8-0.8c0-7,0.1-14,0.1-21c0-0.3,0-0.6,0-0.9C96.1,35.2,96,35.2,96,35.2z"/>
	<path class="st2" d="M51,57.6c-3.4,0-6.8,0-10.2,0c-2.1,0-3.5-1-4.1-3c-0.3-1-0.5-2.1-0.8-3.2c-0.2-0.7,0.1-0.8,0.7-0.8
		c3.7,0,7.4,0,11.2,0c3.3,0,6.6,0,9.9,0c1.7,0,2.4-0.6,2.5-2.3c0.1-1.6-0.1-2.7-1.4-3.1c-0.4-0.1-0.7-0.1-1-0.1
		c-5.2,0-10.3,0-15.5,0c-2.9,0-4.7-1.2-5.5-4c-1.2-3.8-1.2-7.6-0.1-11.4c0.8-3,2.7-4.3,5.8-4.3c6.8,0,13.5,0,20.3,0
		c2.6,0,4.5,1.8,4.7,4.4c0.2,2.7,0.2,2.7-2.5,2.7c-6.3,0-12.5,0-18.8,0c-1.9,0-2.5,0.6-2.5,2.4c-0.1,2.2,0.5,2.8,2.7,2.8
		c4.7,0,9.3,0.1,14,0c4.1-0.1,6.3,1.3,7.1,5.8c0.6,3.3,0.6,6.6-0.4,9.8c-0.9,3.1-2.7,4.4-5.9,4.4C57.7,57.7,54.3,57.7,51,57.6
		C51,57.7,51,57.6,51,57.6z"/>
	<path class="st3" d="M118.3,25.5c4.4,0,8.8,0,13.3,0c1.6,0,3.2,0,4.8,0c3.2,0,5.5,2.3,5.7,5.4c0,0.7,0,1.4,0,2
		c0,0.6-0.2,0.7-0.7,0.7c-2.5,0-5,0-7.4,0c-0.8,0-1,0.2-1,1c0,7.5,0,15,0,22.5c0,0.8-0.1,1-1,1c-4.3,0-8.6,0-12.8,0
		c-0.3,0-0.6,0-1,0c0.1-0.3,0-0.6,0.1-0.9c1.9,0,3.8,0,5.7,0c0.6,0,0.7-0.2,0.7-0.8c0-9.7-0.1-19.3,0.1-29c0-0.6-0.2-0.7-0.8-0.7
		c-1.9,0-3.8,0-5.7,0C118.3,26.2,118.3,25.8,118.3,25.5z"/>
	<path class="st4" d="M118.3,57c-0.2,0.3-0.1,0.6-0.1,0.9c-2.7,0.9-5.5,1.9-8.2,2.9c-0.6,0.2-0.7,0.1-0.7-0.5
		c0-6.6,0.1-13.1,0.1-19.7c0-3.8,0.1-7.6,0.1-11.4c0-0.7,0.2-1,0.8-1.2c2.7-0.9,5.4-1.8,8-2.6c0,0.4,0,0.7,0,1.1c0,4,0,7.9,0,11.9
		C118.3,44.7,118.3,50.9,118.3,57z M114.5,41.9c0-0.9-0.6-1.5-1.6-1.5c-1.1,0-2,0.7-2,1.7c0,0.8,0.7,1.5,1.7,1.5
		C113.6,43.6,114.4,42.9,114.5,41.9z"/>
	<path class="st4" d="M113.3,24.1c-2.3,0-4-1.4-4.1-3.4c-0.1-1.9,1.7-3.9,3.9-4.2c2.1-0.3,3.9,0.7,4.6,2.4c0.8,2.3-1.1,4.9-3.8,5.2
		C113.6,24.1,113.4,24.1,113.3,24.1z"/>
	<path class="st5" d="M114.5,41.9c0,1-0.8,1.7-1.9,1.7c-0.9,0-1.7-0.7-1.7-1.5c0-1,0.9-1.7,2-1.7C113.9,40.5,114.5,41,114.5,41.9z"
		/>
</g>
</svg>
