<svg width="54" height="55" viewBox="0 0 54 55" fill="none" xmlns="http://www.w3.org/2000/svg">
<rect y="0.709717" width="54" height="54" rx="7" fill="white"/>
<rect y="0.709717" width="54" height="54" rx="7" fill="url(#paint0_linear_7763_1298)"/>
<path d="M46.4334 25.7666C46.1897 25.5823 45.9078 25.4552 45.6085 25.3948C45.3092 25.3344 45.0002 25.3422 44.7043 25.4176C44.2136 25.555 43.7073 25.6287 43.1979 25.6367C39.849 25.6367 37.1238 22.9056 37.1177 19.6752C37.1278 19.6062 37.1501 19.4033 37.1521 19.3343C37.1653 19.0171 37.1039 18.7012 36.9729 18.4121C36.8418 18.1231 36.6448 17.8689 36.3976 17.6703C36.1505 17.4716 35.8603 17.3339 35.5503 17.2684C35.2403 17.2029 34.9193 17.2113 34.6131 17.293C34.112 17.4345 33.5949 17.5109 33.0743 17.5203C29.7255 17.5203 27.0002 14.7891 27.0002 11.4329C27.0002 10.9926 27.063 10.532 27.2006 9.98008C27.2786 9.66505 27.28 9.33587 27.2047 9.02018C27.1294 8.70449 26.9797 8.41151 26.7681 8.16582C26.5564 7.92013 26.2891 7.7289 25.9884 7.60819C25.6878 7.48748 25.3626 7.44081 25.0403 7.4721C20.026 7.94046 15.3683 10.2728 11.9838 14.0101C8.59938 17.7474 6.73338 22.6189 6.75308 27.6659C6.75308 38.8544 15.8359 47.957 27.0002 47.957C38.1645 47.957 47.2473 38.8544 47.2473 27.6659C47.2473 27.5664 47.2412 27.469 47.2331 27.3412C47.2263 27.0354 47.1509 26.7351 47.0125 26.4625C46.874 26.1899 46.6761 25.9521 46.4334 25.7666ZM19.9137 15.4912C20.7192 15.4912 21.4917 15.8118 22.0612 16.3826C22.6308 16.9534 22.9508 17.7276 22.9508 18.5348C22.9508 19.3421 22.6308 20.1162 22.0612 20.687C21.4917 21.2578 20.7192 21.5785 19.9137 21.5785C19.1082 21.5785 18.3357 21.2578 17.7662 20.687C17.1966 20.1162 16.8766 19.3421 16.8766 18.5348C16.8766 17.7276 17.1966 16.9534 17.7662 16.3826C18.3357 15.8118 19.1082 15.4912 19.9137 15.4912ZM15.8643 31.7241C15.4655 31.7241 15.0705 31.6454 14.7021 31.4924C14.3336 31.3395 13.9988 31.1153 13.7168 30.8326C13.4347 30.55 13.211 30.2145 13.0584 29.8452C12.9058 29.4759 12.8272 29.0801 12.8272 28.6804C12.8272 28.2807 12.9058 27.8849 13.0584 27.5157C13.211 27.1464 13.4347 26.8109 13.7168 26.5282C13.9988 26.2456 14.3336 26.0214 14.7021 25.8684C15.0705 25.7155 15.4655 25.6367 15.8643 25.6367C16.6698 25.6367 17.4423 25.9574 18.0118 26.5282C18.5814 27.099 18.9014 27.8732 18.9014 28.6804C18.9014 29.4877 18.5814 30.2618 18.0118 30.8326C17.4423 31.4034 16.6698 31.7241 15.8643 31.7241ZM21.9384 39.8406C21.1329 39.8406 20.3605 39.5199 19.7909 38.9491C19.2213 38.3783 18.9014 37.6041 18.9014 36.7969C18.9014 35.9897 19.2213 35.2155 19.7909 34.6447C20.3605 34.0739 21.1329 33.7532 21.9384 33.7532C22.7439 33.7532 23.5164 34.0739 24.086 34.6447C24.6555 35.2155 24.9755 35.9897 24.9755 36.7969C24.9755 37.6041 24.6555 38.3783 24.086 38.9491C23.5164 39.5199 22.7439 39.8406 21.9384 39.8406ZM27.0002 26.6513C27.0002 25.8441 27.3202 25.0699 27.8897 24.4991C28.4593 23.9283 29.2318 23.6076 30.0373 23.6076C30.8427 23.6076 31.6152 23.9283 32.1848 24.4991C32.7544 25.0699 33.0743 25.8441 33.0743 26.6513C33.0743 27.4585 32.7544 28.2327 32.1848 28.8035C31.6152 29.3743 30.8427 29.695 30.0373 29.695C29.2318 29.695 28.4593 29.3743 27.8897 28.8035C27.3202 28.2327 27.0002 27.4585 27.0002 26.6513ZM34.0867 39.8406C33.2812 39.8406 32.5087 39.5199 31.9392 38.9491C31.3696 38.3783 31.0496 37.6041 31.0496 36.7969C31.0496 35.9897 31.3696 35.2155 31.9392 34.6447C32.5087 34.0739 33.2812 33.7532 34.0867 33.7532C34.8922 33.7532 35.6647 34.0739 36.2342 34.6447C36.8038 35.2155 37.1238 35.9897 37.1238 36.7969C37.1238 37.6041 36.8038 38.3783 36.2342 38.9491C35.6647 39.5199 34.8922 39.8406 34.0867 39.8406Z" fill="white"/>
<defs>
<linearGradient id="paint0_linear_7763_1298" x1="-7.9317" y1="62.9869" x2="59.8016" y2="67.3911" gradientUnits="userSpaceOnUse">
<stop stop-color="#4AC9FF"/>
<stop offset="1" stop-color="#30CF68"/>
</linearGradient>
</defs>
</svg>
