<svg width="51" height="54" viewBox="0 0 51 54" fill="none" xmlns="http://www.w3.org/2000/svg">
<path fill-rule="evenodd" clip-rule="evenodd" d="M51 9.58246C51 4.29022 46.9481 1.94155e-06 41.9499 1.52269e-06L9.0501 0C4.05187 -2.31332e-07 1.83369e-06 4.29022 1.43809e-06 9.58246L0 44.4175C-2.1848e-07 49.7098 4.05187 54 9.0501 54H41.9499C46.9481 54 51 49.7098 51 44.4175V9.58246ZM25.7569 35.8822C25.7569 40.5056 29.3091 44.2668 33.6758 44.2668C35.3152 44.2668 36.8398 43.7366 38.1047 42.8298L42.0366 46.993C42.3307 47.3045 42.7168 47.4609 43.103 47.4609C43.4892 47.4609 43.8752 47.3045 44.1694 46.993C44.7592 46.3685 44.7592 45.3592 44.1694 44.7348L40.2375 40.5716C41.094 39.2322 41.5946 37.6179 41.5946 35.8822C41.5946 31.2587 38.0425 27.4975 33.6758 27.4975C29.3091 27.4975 25.7569 31.2587 25.7569 35.8822ZM37.1344 39.5442C37.1681 39.5085 37.2031 39.4749 37.239 39.4432C38.0687 38.513 38.5779 37.2594 38.5779 35.8822C38.5779 33.0202 36.3788 30.6916 33.6758 30.6916C30.9729 30.6916 28.7737 33.0202 28.7737 35.8822C28.7737 38.7442 30.9729 41.0727 33.6758 41.0727C34.9765 41.0727 36.1606 40.5335 37.039 39.6551C37.0689 39.6169 37.1007 39.58 37.1344 39.5442ZM12.5589 9.13117H29.905C32.1976 9.13117 34.0529 11.0956 34.0529 13.5231V24.3194C33.9322 24.3034 33.7965 24.3034 33.6758 24.3034C27.6424 24.3034 22.7403 29.4939 22.7403 35.8822C22.7403 38.4215 23.5095 40.7532 24.8369 42.6697H12.5589C10.2662 42.6697 8.41095 40.7053 8.41095 38.2778V13.5231C8.41095 11.0956 10.2662 9.13117 12.5589 9.13117ZM29.931 19.4901C29.931 20.8472 28.9266 21.7038 27.2902 21.7038C25.9358 21.7038 25.0676 21.1311 24.804 20.3707C24.7585 20.2456 24.7313 20.1109 24.7313 19.9809C24.7313 19.5959 24.9813 19.3408 25.3358 19.3408C25.6176 19.3408 25.804 19.4563 25.9676 19.7643C26.1812 20.2937 26.6948 20.5343 27.3221 20.5343C28.0584 20.5343 28.5584 20.159 28.5584 19.6489C28.5584 19.1916 28.2493 18.9318 27.4266 18.7537L26.7311 18.6094C25.4222 18.335 24.7813 17.6709 24.7813 16.6362C24.7813 15.3656 25.8267 14.5234 27.2857 14.5234C28.4857 14.5234 29.3902 15.0577 29.681 15.9624C29.7129 16.0586 29.7311 16.1598 29.7311 16.2848C29.7311 16.6313 29.4947 16.8672 29.1447 16.8672C28.8357 16.8672 28.6448 16.7372 28.4902 16.4389C28.272 15.9142 27.8493 15.6977 27.2857 15.6977C26.6085 15.6977 26.1585 16.0346 26.1585 16.5447C26.1585 16.973 26.4721 17.2377 27.2493 17.4013L27.9402 17.5506C29.3311 17.8441 29.931 18.4361 29.931 19.4901ZM12.7542 21.6798C13.1179 21.6798 13.3224 21.4873 13.4496 21.0253L13.795 19.9425H16.1632L16.5086 21.0397C16.6313 21.4921 16.8359 21.6798 17.2221 21.6798C17.6221 21.6798 17.9085 21.3958 17.9085 20.9964C17.9085 20.852 17.8858 20.722 17.8221 20.5343L16.0222 15.3656C15.8268 14.7977 15.5086 14.5475 14.9723 14.5475C14.4541 14.5475 14.1314 14.8074 13.9405 15.3704L12.1497 20.5343C12.0906 20.7124 12.0588 20.876 12.0588 20.9964C12.0588 21.4151 12.327 21.6798 12.7542 21.6798ZM14.0951 18.8162L14.945 15.972H14.9769L15.8449 18.8162H14.0951ZM19.245 21.5883H21.0631C23.0311 21.5883 24.1902 20.2937 24.1902 18.0895C24.1902 15.8854 23.0311 14.6437 21.0631 14.6437H19.245C18.8131 14.6437 18.5587 14.9228 18.5587 15.3994V20.8279C18.5587 21.3091 18.8131 21.5883 19.245 21.5883ZM19.9313 20.3852V15.8421H20.8995C22.1084 15.8421 22.7903 16.6409 22.7903 18.0944C22.7903 19.5959 22.1267 20.3852 20.8995 20.3852H19.9313ZM12.1603 25.6951C12.1603 25.3171 12.4497 25.0107 12.8067 25.0107H22.1154C22.4724 25.0107 22.7619 25.3171 22.7619 25.6951C22.7619 26.0731 22.4724 26.3795 22.1154 26.3795H12.8067C12.4497 26.3795 12.1603 26.0731 12.1603 25.6951ZM12.8067 29.1174C12.4497 29.1174 12.1603 29.4238 12.1603 29.8018C12.1603 30.1799 12.4497 30.4863 12.8067 30.4863H19.4003C19.7573 30.4863 20.0468 30.1799 20.0468 29.8018C20.0468 29.4238 19.7573 29.1174 19.4003 29.1174H12.8067ZM12.1603 33.9086C12.1603 33.5306 12.4497 33.2242 12.8067 33.2242H19.4003C19.7573 33.2242 20.0468 33.5306 20.0468 33.9086C20.0468 34.2866 19.7573 34.593 19.4003 34.593H12.8067C12.4497 34.593 12.1603 34.2866 12.1603 33.9086Z" fill="url(#paint0_linear_1456_354)"/>
<defs>
<linearGradient id="paint0_linear_1456_354" x1="25.5" y1="0" x2="25.5" y2="54" gradientUnits="userSpaceOnUse">
<stop stop-color="#29B759"/>
<stop offset="1" stop-color="#5DF08F"/>
</linearGradient>
</defs>
</svg>
